<mxfile host="65bd71144e" scale="3" border="0">
    <diagram id="aw2tME8MYQPTS3ObVP5B" name="Page-1">
        <mxGraphModel dx="1331" dy="923" grid="0" gridSize="10" guides="1" tooltips="1" connect="1" arrows="1" fold="1" page="1" pageScale="1" pageWidth="1169" pageHeight="827" background="#FFFFFF" math="1" shadow="0">
            <root>
                <mxCell id="0"/>
                <mxCell id="1" parent="0"/>
                <mxCell id="90" value="" style="shape=cylinder3;whiteSpace=wrap;html=1;boundedLbl=1;backgroundOutline=1;size=21.244128648632966;fontColor=#66FF66;strokeWidth=4;fontSize=32;rotation=-100;" parent="1" vertex="1">
                    <mxGeometry x="741.58" y="418.13" width="49.73" height="99.33" as="geometry"/>
                </mxCell>
                <mxCell id="307" value="" style="shape=cylinder3;whiteSpace=wrap;html=1;boundedLbl=1;backgroundOutline=1;size=21.244128648632966;fontColor=#66FF66;strokeWidth=4;fontSize=32;rotation=-100;" parent="1" vertex="1">
                    <mxGeometry x="786.4300000000001" y="268" width="49.73" height="121.31" as="geometry"/>
                </mxCell>
                <mxCell id="235" value="" style="shape=cylinder3;whiteSpace=wrap;html=1;boundedLbl=1;backgroundOutline=1;size=4.904974089441552;fontColor=#66FF66;strokeWidth=4;fontSize=32;rotation=-145;" parent="1" vertex="1">
                    <mxGeometry x="796" y="289.68999999999994" width="49.73" height="71.31" as="geometry"/>
                </mxCell>
                <mxCell id="165" value="&lt;font style=&quot;font-size: 32px;&quot;&gt;$$ \{0,1\} $$&lt;/font&gt;" style="text;html=1;strokeColor=none;fillColor=none;align=center;verticalAlign=middle;whiteSpace=wrap;rounded=0;strokeWidth=4;fontSize=32;fontFamily=Times New Roman;" parent="1" vertex="1">
                    <mxGeometry x="713" y="632.9980920241999" width="39.14999125675108" height="30.464113735257282" as="geometry"/>
                </mxCell>
                <mxCell id="230" value="" style="endArrow=classic;html=1;strokeColor=#0000FF;strokeWidth=4;fontSize=32;" parent="1" edge="1">
                    <mxGeometry width="50" height="50" relative="1" as="geometry">
                        <mxPoint x="757.9999999999999" y="467.39" as="sourcePoint"/>
                        <mxPoint x="826" y="454" as="targetPoint"/>
                    </mxGeometry>
                </mxCell>
                <mxCell id="232" value="" style="endArrow=none;html=1;fontColor=#66FF66;strokeColor=#000000;strokeWidth=4;fontSize=32;entryX=0.085;entryY=0.146;entryDx=0;entryDy=0;entryPerimeter=0;exitX=1;exitY=0.5;exitDx=0;exitDy=0;exitPerimeter=0;" parent="1" source="90" edge="1">
                    <mxGeometry width="50" height="50" relative="1" as="geometry">
                        <mxPoint x="784" y="400" as="sourcePoint"/>
                        <mxPoint x="807.5885115412567" y="348.36294261477633" as="targetPoint"/>
                    </mxGeometry>
                </mxCell>
                <mxCell id="238" value="" style="endArrow=none;html=1;fontColor=#66FF66;strokeColor=#000000;strokeWidth=4;fontSize=32;" parent="1" source="235" target="243" edge="1">
                    <mxGeometry width="50" height="50" relative="1" as="geometry">
                        <mxPoint x="805" y="302" as="sourcePoint"/>
                        <mxPoint x="789.055566169177" y="252.79317279795555" as="targetPoint"/>
                    </mxGeometry>
                </mxCell>
                <mxCell id="243" value="" style="shape=cylinder3;whiteSpace=wrap;html=1;boundedLbl=1;backgroundOutline=1;size=4.904974089441552;fontColor=#66FF66;strokeWidth=4;fontSize=32;rotation=144;" parent="1" vertex="1">
                    <mxGeometry x="728.95" y="151" width="35.76" height="55" as="geometry"/>
                </mxCell>
                <mxCell id="245" value="" style="endArrow=classic;html=1;strokeColor=#0000FF;strokeWidth=4;fontSize=32;" parent="1" edge="1">
                    <mxGeometry width="50" height="50" relative="1" as="geometry">
                        <mxPoint x="815" y="333.03999999999985" as="sourcePoint"/>
                        <mxPoint x="855" y="267" as="targetPoint"/>
                    </mxGeometry>
                </mxCell>
                <mxCell id="246" value="" style="endArrow=classic;html=1;strokeColor=#0000FF;strokeWidth=4;fontSize=32;" parent="1" edge="1">
                    <mxGeometry width="50" height="50" relative="1" as="geometry">
                        <mxPoint x="817" y="329.96999999999997" as="sourcePoint"/>
                        <mxPoint x="925" y="309" as="targetPoint"/>
                    </mxGeometry>
                </mxCell>
                <mxCell id="252" value="" style="endArrow=classic;html=1;strokeColor=#0000FF;strokeWidth=4;fontSize=32;" parent="1" edge="1">
                    <mxGeometry width="50" height="50" relative="1" as="geometry">
                        <mxPoint x="747" y="183" as="sourcePoint"/>
                        <mxPoint x="707.85" y="117" as="targetPoint"/>
                    </mxGeometry>
                </mxCell>
                <mxCell id="164" value="&lt;font style=&quot;font-size: 32px;&quot; color=&quot;#00cc00&quot;&gt;$$ \hat Y _{0}^s $$&lt;/font&gt;" style="text;html=1;strokeColor=none;fillColor=none;align=center;verticalAlign=middle;whiteSpace=wrap;rounded=0;strokeWidth=4;fontSize=32;fontFamily=Times New Roman;" parent="1" vertex="1">
                    <mxGeometry x="830.0005208689419" y="595.7858862647427" width="39.14999125675108" height="30.464113735257282" as="geometry"/>
                </mxCell>
                <mxCell id="3" value="" style="shape=cube;whiteSpace=wrap;html=1;boundedLbl=1;backgroundOutline=1;darkOpacity=0.05;darkOpacity2=0.1;rotation=90;strokeWidth=4;fontSize=32;" parent="1" vertex="1">
                    <mxGeometry x="741" y="566.25" width="60" height="60" as="geometry"/>
                </mxCell>
                <mxCell id="81" value="" style="endArrow=none;html=1;strokeWidth=4;fontSize=32;" parent="1" edge="1">
                    <mxGeometry width="50" height="50" relative="1" as="geometry">
                        <mxPoint x="767" y="577.25" as="sourcePoint"/>
                        <mxPoint x="767" y="493" as="targetPoint"/>
                    </mxGeometry>
                </mxCell>
                <mxCell id="160" value="" style="endArrow=blockThin;html=1;strokeWidth=4;fontSize=32;fontFamily=Times New Roman;endFill=1;endSize=12;strokeColor=#0000FF;jumpSize=2;startSize=2;" parent="1" edge="1">
                    <mxGeometry width="50" height="50" relative="1" as="geometry">
                        <mxPoint x="762.7948178245476" y="609.8100925506099" as="sourcePoint"/>
                        <mxPoint x="763" y="526" as="targetPoint"/>
                    </mxGeometry>
                </mxCell>
                <mxCell id="166" value="" style="endArrow=blockThin;html=1;strokeWidth=4;fontSize=32;fontFamily=Times New Roman;endSize=12;endFill=1;strokeColor=#00CC00;jumpSize=2;startSize=2;" parent="1" edge="1">
                    <mxGeometry width="50" height="50" relative="1" as="geometry">
                        <mxPoint x="762.9991786610645" y="607.8209046968884" as="sourcePoint"/>
                        <mxPoint x="841" y="584" as="targetPoint"/>
                    </mxGeometry>
                </mxCell>
                <mxCell id="162" value="" style="endArrow=blockThin;html=1;strokeWidth=4;fontSize=32;fontFamily=Times New Roman;endSize=12;endFill=1;strokeColor=#FF3333;jumpSize=2;startSize=2;" parent="1" edge="1">
                    <mxGeometry width="50" height="50" relative="1" as="geometry">
                        <mxPoint x="763.9960961515138" y="608.3788743311918" as="sourcePoint"/>
                        <mxPoint x="831" y="667" as="targetPoint"/>
                    </mxGeometry>
                </mxCell>
                <mxCell id="256" value="" style="endArrow=blockThin;html=1;strokeWidth=4;fontSize=32;fontFamily=Times New Roman;endSize=12;endFill=1;strokeColor=#FF3333;jumpSize=2;startSize=2;" parent="1" edge="1">
                    <mxGeometry width="50" height="50" relative="1" as="geometry">
                        <mxPoint x="760.9960961515139" y="469.1388743311916" as="sourcePoint"/>
                        <mxPoint x="817" y="512" as="targetPoint"/>
                    </mxGeometry>
                </mxCell>
                <mxCell id="257" value="&lt;font style=&quot;font-size: 32px;&quot; color=&quot;#0000ff&quot;&gt;$$ \hat Z _{2}^s $$&lt;/font&gt;" style="text;html=1;strokeColor=none;fillColor=none;align=center;verticalAlign=middle;whiteSpace=wrap;rounded=0;strokeWidth=4;fontSize=32;fontFamily=Times New Roman;" parent="1" vertex="1">
                    <mxGeometry x="828.0038978600197" y="441.2970283512949" width="39.14999125675108" height="30.464113735257282" as="geometry"/>
                </mxCell>
                <mxCell id="258" value="&lt;font style=&quot;font-size: 32px;&quot; color=&quot;#0000ff&quot;&gt;$$ \hat Z _{3}^s $$&lt;/font&gt;" style="text;html=1;strokeColor=none;fillColor=none;align=center;verticalAlign=middle;whiteSpace=wrap;rounded=0;strokeWidth=4;fontSize=32;fontFamily=Times New Roman;" parent="1" vertex="1">
                    <mxGeometry x="869.1538978600197" y="236.99702835129494" width="39.14999125675108" height="30.464113735257282" as="geometry"/>
                </mxCell>
                <mxCell id="265" value="&lt;font style=&quot;font-size: 32px;&quot; color=&quot;#0000ff&quot;&gt;$$ \hat Z _{5}^s $$&lt;/font&gt;" style="text;html=1;strokeColor=none;fillColor=none;align=center;verticalAlign=middle;whiteSpace=wrap;rounded=0;strokeWidth=4;fontSize=32;fontFamily=Times New Roman;" parent="1" vertex="1">
                    <mxGeometry x="717.8538978600197" y="102.99702835129489" width="39.14999125675108" height="30.464113735257282" as="geometry"/>
                </mxCell>
                <mxCell id="266" value="" style="endArrow=blockThin;html=1;strokeWidth=4;fontSize=32;fontFamily=Times New Roman;endSize=12;endFill=1;strokeColor=#FF3333;jumpSize=2;startSize=2;" parent="1" edge="1">
                    <mxGeometry width="50" height="50" relative="1" as="geometry">
                        <mxPoint x="817.1460961515139" y="332.9988743311918" as="sourcePoint"/>
                        <mxPoint x="866.99" y="396" as="targetPoint"/>
                    </mxGeometry>
                </mxCell>
                <mxCell id="272" value="" style="group;fontSize=32;" parent="1" vertex="1" connectable="0">
                    <mxGeometry x="921.8538978600196" y="289.6870283512949" width="96.29661426567331" height="33.49411373525729" as="geometry"/>
                </mxCell>
                <mxCell id="259" value="&lt;font style=&quot;font-size: 32px;&quot; color=&quot;#0000ff&quot;&gt;$$ \hat Z _{4}^s $$&lt;/font&gt;" style="text;html=1;strokeColor=none;fillColor=none;align=center;verticalAlign=middle;whiteSpace=wrap;rounded=0;strokeWidth=4;fontSize=32;fontFamily=Times New Roman;" parent="272" vertex="1">
                    <mxGeometry width="39.14999125675108" height="30.464113735257282" as="geometry"/>
                </mxCell>
                <mxCell id="318" value="&lt;font style=&quot;font-size: 32px;&quot; color=&quot;#00cc00&quot;&gt;$$ =\hat Y _{3}^s $$&lt;/font&gt;" style="text;html=1;strokeColor=none;fillColor=none;align=center;verticalAlign=middle;whiteSpace=wrap;rounded=0;strokeWidth=4;fontSize=32;fontFamily=Times New Roman;" vertex="1" parent="272">
                    <mxGeometry x="57.146623008922234" y="-0.001142086552249566" width="39.14999125675108" height="30.464113735257282" as="geometry"/>
                </mxCell>
                <mxCell id="287" value="" style="endArrow=blockThin;html=1;strokeWidth=4;fontSize=32;fontFamily=Times New Roman;endSize=12;endFill=1;strokeColor=#FF3333;jumpSize=2;startSize=2;" parent="1" edge="1">
                    <mxGeometry width="50" height="50" relative="1" as="geometry">
                        <mxPoint x="746.5760961515143" y="182.99887433119193" as="sourcePoint"/>
                        <mxPoint x="797" y="140" as="targetPoint"/>
                    </mxGeometry>
                </mxCell>
                <mxCell id="289" value="&lt;font style=&quot;font-size: 32px;&quot; color=&quot;#ff3333&quot;&gt;$$ \hat X _{5} ^s$$&lt;/font&gt;" style="text;html=1;strokeColor=none;fillColor=none;align=center;verticalAlign=middle;whiteSpace=wrap;rounded=0;strokeWidth=4;fontSize=32;fontFamily=Times New Roman;" parent="1" vertex="1">
                    <mxGeometry x="771.0049151429007" y="106" width="39.14999125675108" height="30.464113735257282" as="geometry"/>
                </mxCell>
                <mxCell id="293" value="" style="group;fontSize=32;" parent="1" vertex="1" connectable="0">
                    <mxGeometry x="659.0038978600197" y="546.9970283512948" width="84.84999125675108" height="31.004113735257306" as="geometry"/>
                </mxCell>
                <mxCell id="163" value="&lt;font style=&quot;font-size: 32px;&quot; color=&quot;#0000ff&quot;&gt;$$ \hat Z _{0}^s $$&lt;/font&gt;" style="text;html=1;strokeColor=none;fillColor=none;align=center;verticalAlign=middle;whiteSpace=wrap;rounded=0;strokeWidth=4;fontSize=32;fontFamily=Times New Roman;" parent="293" vertex="1">
                    <mxGeometry y="0.5400000000000205" width="39.14999125675108" height="30.464113735257282" as="geometry"/>
                </mxCell>
                <mxCell id="292" value="&lt;font style=&quot;font-size: 32px;&quot; color=&quot;#0000ff&quot;&gt;$$ =\hat Z _{1}^s $$&lt;/font&gt;" style="text;html=1;strokeColor=none;fillColor=none;align=center;verticalAlign=middle;whiteSpace=wrap;rounded=0;strokeWidth=4;fontSize=32;fontFamily=Times New Roman;" parent="293" vertex="1">
                    <mxGeometry x="45.700000000000045" width="39.14999125675108" height="30.464113735257282" as="geometry"/>
                </mxCell>
                <mxCell id="295" value="" style="group;fontSize=32;" parent="1" vertex="1" connectable="0">
                    <mxGeometry x="785.0049151429007" y="669" width="86.14999125675104" height="30.464113735257285" as="geometry"/>
                </mxCell>
                <mxCell id="296" value="&lt;font style=&quot;font-size: 32px;&quot; color=&quot;#ff3333&quot;&gt;$$ \hat X _{0} ^s$$&lt;/font&gt;" style="text;html=1;strokeColor=none;fillColor=none;align=center;verticalAlign=middle;whiteSpace=wrap;rounded=0;strokeWidth=4;fontSize=32;fontFamily=Times New Roman;" parent="295" vertex="1">
                    <mxGeometry width="39.14999125675108" height="30.464113735257282" as="geometry"/>
                </mxCell>
                <mxCell id="297" value="&lt;font style=&quot;font-size: 32px;&quot; color=&quot;#ff3333&quot;&gt;$$ =\hat X _{1} ^s$$&lt;/font&gt;" style="text;html=1;strokeColor=none;fillColor=none;align=center;verticalAlign=middle;whiteSpace=wrap;rounded=0;strokeWidth=4;fontSize=32;fontFamily=Times New Roman;" parent="295" vertex="1">
                    <mxGeometry x="47" width="39.14999125675108" height="30.464113735257282" as="geometry"/>
                </mxCell>
                <mxCell id="300" value="&lt;font style=&quot;font-size: 32px;&quot;&gt;$$ \{2\} $$&lt;/font&gt;" style="text;html=1;strokeColor=none;fillColor=none;align=center;verticalAlign=middle;whiteSpace=wrap;rounded=0;strokeWidth=4;fontSize=32;fontFamily=Times New Roman;" parent="1" vertex="1">
                    <mxGeometry x="665.85" y="456.53809202419984" width="39.14999125675108" height="30.464113735257282" as="geometry"/>
                </mxCell>
                <mxCell id="302" value="&lt;font style=&quot;font-size: 32px;&quot;&gt;$$ \{3,4\} $$&lt;/font&gt;" style="text;html=1;strokeColor=none;fillColor=none;align=center;verticalAlign=middle;whiteSpace=wrap;rounded=0;strokeWidth=4;fontSize=32;fontFamily=Times New Roman;" parent="1" vertex="1">
                    <mxGeometry x="908.3000000000001" y="338.9980920241999" width="39.14999125675108" height="30.464113735257282" as="geometry"/>
                </mxCell>
                <mxCell id="305" value="&lt;font style=&quot;font-size: 32px;&quot;&gt;$$ \{5\} $$&lt;/font&gt;" style="text;html=1;strokeColor=none;fillColor=none;align=center;verticalAlign=middle;whiteSpace=wrap;rounded=0;strokeWidth=4;fontSize=32;fontFamily=Times New Roman;" parent="1" vertex="1">
                    <mxGeometry x="689.8000000000001" y="202.99809202419988" width="39.14999125675108" height="30.464113735257282" as="geometry"/>
                </mxCell>
                <mxCell id="262" value="&lt;font style=&quot;font-size: 32px;&quot; color=&quot;#ff3333&quot;&gt;$$ \hat X _{2} ^s$$&lt;/font&gt;" style="text;html=1;strokeColor=none;fillColor=none;align=center;verticalAlign=middle;whiteSpace=wrap;rounded=0;strokeWidth=4;fontSize=32;fontFamily=Times New Roman;" parent="1" vertex="1">
                    <mxGeometry x="830.0049151429007" y="497.29999999999995" width="39.14999125675108" height="30.464113735257282" as="geometry"/>
                </mxCell>
                <mxCell id="311" value="&lt;font style=&quot;font-size: 32px;&quot; color=&quot;#ff3333&quot;&gt;$$ \hat X _{3} ^s$$&lt;/font&gt;" style="text;html=1;strokeColor=none;fillColor=none;align=center;verticalAlign=middle;whiteSpace=wrap;rounded=0;strokeWidth=4;fontSize=32;fontFamily=Times New Roman;" parent="1" vertex="1">
                    <mxGeometry x="873.8549151429007" y="387.67" width="39.14999125675108" height="30.464113735257282" as="geometry"/>
                </mxCell>
                <mxCell id="312" value="&lt;font style=&quot;font-size: 32px;&quot; color=&quot;#ff3333&quot;&gt;$$ =\hat X _{4} ^s$$&lt;/font&gt;" style="text;html=1;strokeColor=none;fillColor=none;align=center;verticalAlign=middle;whiteSpace=wrap;rounded=0;strokeWidth=4;fontSize=32;fontFamily=Times New Roman;" parent="1" vertex="1">
                    <mxGeometry x="931.8549151429007" y="387.67" width="39.14999125675108" height="30.464113735257282" as="geometry"/>
                </mxCell>
                <mxCell id="313" value="" style="endArrow=blockThin;html=1;strokeWidth=4;fontSize=32;fontFamily=Times New Roman;endSize=12;endFill=1;strokeColor=#00CC00;jumpSize=2;startSize=2;" edge="1" parent="1">
                    <mxGeometry width="50" height="50" relative="1" as="geometry">
                        <mxPoint x="761.7091786610645" y="465.12090469688843" as="sourcePoint"/>
                        <mxPoint x="727.6206496577925" y="546.9970283512948" as="targetPoint"/>
                    </mxGeometry>
                </mxCell>
                <mxCell id="314" value="" style="endArrow=blockThin;html=1;strokeWidth=4;fontSize=32;fontFamily=Times New Roman;endSize=12;endFill=1;strokeColor=#00CC00;jumpSize=2;startSize=2;" edge="1" parent="1">
                    <mxGeometry width="50" height="50" relative="1" as="geometry">
                        <mxPoint x="816.0891786610645" y="332.00090469688837" as="sourcePoint"/>
                        <mxPoint x="885" y="314" as="targetPoint"/>
                    </mxGeometry>
                </mxCell>
                <mxCell id="315" value="" style="endArrow=blockThin;html=1;strokeWidth=4;fontSize=32;fontFamily=Times New Roman;endSize=12;endFill=1;strokeColor=#00CC00;jumpSize=2;startSize=2;" edge="1" parent="1">
                    <mxGeometry width="50" height="50" relative="1" as="geometry">
                        <mxPoint x="819.0891786610645" y="328.00090469688837" as="sourcePoint"/>
                        <mxPoint x="779" y="406" as="targetPoint"/>
                    </mxGeometry>
                </mxCell>
                <mxCell id="316" value="" style="endArrow=blockThin;html=1;strokeWidth=4;fontSize=32;fontFamily=Times New Roman;endSize=12;endFill=1;strokeColor=#00CC00;jumpSize=2;startSize=2;" edge="1" parent="1">
                    <mxGeometry width="50" height="50" relative="1" as="geometry">
                        <mxPoint x="747.0891786610646" y="183.00090469688848" as="sourcePoint"/>
                        <mxPoint x="836" y="150" as="targetPoint"/>
                    </mxGeometry>
                </mxCell>
                <mxCell id="317" value="&lt;font style=&quot;font-size: 32px;&quot; color=&quot;#00cc00&quot;&gt;$$ \hat Y _{2}^s $$&lt;/font&gt;" style="text;html=1;strokeColor=none;fillColor=none;align=center;verticalAlign=middle;whiteSpace=wrap;rounded=0;strokeWidth=4;fontSize=32;fontFamily=Times New Roman;" vertex="1" parent="1">
                    <mxGeometry x="699.0005208689419" y="497.29588626474265" width="39.14999125675108" height="30.464113735257282" as="geometry"/>
                </mxCell>
                <mxCell id="319" value="&lt;font style=&quot;font-size: 32px;&quot; color=&quot;#00cc00&quot;&gt;$$ \hat Y _{4}^s $$&lt;/font&gt;" style="text;html=1;strokeColor=none;fillColor=none;align=center;verticalAlign=middle;whiteSpace=wrap;rounded=0;strokeWidth=4;fontSize=32;fontFamily=Times New Roman;" vertex="1" parent="1">
                    <mxGeometry x="738.1505208689418" y="369.4658862647426" width="39.14999125675108" height="30.464113735257282" as="geometry"/>
                </mxCell>
                <mxCell id="320" value="&lt;font style=&quot;font-size: 32px;&quot; color=&quot;#00cc00&quot;&gt;$$ \hat Y _{5}^s $$&lt;/font&gt;" style="text;html=1;strokeColor=none;fillColor=none;align=center;verticalAlign=middle;whiteSpace=wrap;rounded=0;strokeWidth=4;fontSize=32;fontFamily=Times New Roman;" vertex="1" parent="1">
                    <mxGeometry x="810.1505208689418" y="167.9958862647426" width="39.14999125675108" height="30.464113735257282" as="geometry"/>
                </mxCell>
                <mxCell id="321" value="&lt;font style=&quot;font-size: 32px;&quot;&gt;$$ D_1 $$&lt;/font&gt;" style="text;html=1;strokeColor=none;fillColor=none;align=center;verticalAlign=middle;whiteSpace=wrap;rounded=0;strokeWidth=4;fontSize=32;fontFamily=Times New Roman;" vertex="1" parent="1">
                    <mxGeometry x="882.7" y="602.5380920241998" width="39.14999125675108" height="30.464113735257282" as="geometry"/>
                </mxCell>
                <mxCell id="324" value="" style="endArrow=classic;html=1;fontColor=#66FF66;fillColor=#d5e8d4;strokeColor=#33FF99;strokeWidth=5;fontSize=16;endFill=0;shape=flexArrow;" edge="1" parent="1">
                    <mxGeometry width="50" height="50" relative="1" as="geometry">
                        <mxPoint x="937.4699999999999" y="644.75" as="sourcePoint"/>
                        <mxPoint x="937.15" y="577.29" as="targetPoint"/>
                    </mxGeometry>
                </mxCell>
                <mxCell id="325" value="" style="endArrow=none;dashed=1;html=1;cloneable=0;strokeWidth=5;fillColor=#ffe6cc;strokeColor=#FF8000;" edge="1" parent="1">
                    <mxGeometry width="50" height="50" relative="1" as="geometry">
                        <mxPoint x="628" y="497" as="sourcePoint"/>
                        <mxPoint x="894.79" y="436" as="targetPoint"/>
                    </mxGeometry>
                </mxCell>
                <mxCell id="326" value="" style="endArrow=none;dashed=1;html=1;cloneable=0;strokeWidth=5;fillColor=#ffe6cc;strokeColor=#007FFF;" edge="1" parent="1">
                    <mxGeometry width="50" height="50" relative="1" as="geometry">
                        <mxPoint x="663" y="359.15000000000003" as="sourcePoint"/>
                        <mxPoint x="929.79" y="298.15000000000003" as="targetPoint"/>
                    </mxGeometry>
                </mxCell>
                <mxCell id="328" value="" style="endArrow=none;dashed=1;html=1;cloneable=0;strokeWidth=5;fillColor=#ffe6cc;strokeColor=#007FFF;" edge="1" parent="1">
                    <mxGeometry width="50" height="50" relative="1" as="geometry">
                        <mxPoint x="790" y="378" as="sourcePoint"/>
                        <mxPoint x="893" y="186" as="targetPoint"/>
                    </mxGeometry>
                </mxCell>
                <mxCell id="329" value="&lt;font color=&quot;#ff8000&quot; style=&quot;font-size: 32px;&quot;&gt;$$ (ks)_1 $$&lt;/font&gt;" style="text;html=1;strokeColor=none;fillColor=none;align=center;verticalAlign=middle;whiteSpace=wrap;rounded=0;strokeWidth=4;fontSize=32;fontFamily=Times New Roman;" vertex="1" parent="1">
                    <mxGeometry x="575.0005208689419" y="487.0058862647427" width="39.14999125675108" height="30.464113735257282" as="geometry"/>
                </mxCell>
                <mxCell id="330" value="&lt;font color=&quot;#ff8000&quot; style=&quot;font-size: 32px;&quot;&gt;$$ (ks)_2 $$&lt;/font&gt;" style="text;html=1;strokeColor=none;fillColor=none;align=center;verticalAlign=middle;whiteSpace=wrap;rounded=0;strokeWidth=4;fontSize=32;fontFamily=Times New Roman;" vertex="1" parent="1">
                    <mxGeometry x="650.6505208689418" y="365.9958862647427" width="39.14999125675108" height="30.464113735257282" as="geometry"/>
                </mxCell>
                <mxCell id="331" value="&lt;font color=&quot;#ff8000&quot; style=&quot;font-size: 32px;&quot;&gt;$$ \Phi_2 $$&lt;/font&gt;" style="text;html=1;strokeColor=none;fillColor=none;align=center;verticalAlign=middle;whiteSpace=wrap;rounded=0;strokeWidth=4;fontSize=32;fontFamily=Times New Roman;" vertex="1" parent="1">
                    <mxGeometry x="901.0005208689419" y="180.9958862647427" width="39.14999125675108" height="30.464113735257282" as="geometry"/>
                </mxCell>
                <mxCell id="332" value="" style="endArrow=none;dashed=1;html=1;cloneable=0;strokeWidth=5;fillColor=#ffe6cc;strokeColor=#FF99CC;" edge="1" parent="1">
                    <mxGeometry width="50" height="50" relative="1" as="geometry">
                        <mxPoint x="782" y="233.46" as="sourcePoint"/>
                        <mxPoint x="673" y="73.46" as="targetPoint"/>
                    </mxGeometry>
                </mxCell>
                <mxCell id="333" value="&lt;font color=&quot;#ff99cc&quot; style=&quot;font-size: 32px;&quot;&gt;$$ \Theta_5$$&lt;/font&gt;" style="text;html=1;strokeColor=none;fillColor=none;align=center;verticalAlign=middle;whiteSpace=wrap;rounded=0;strokeWidth=4;fontSize=32;fontFamily=Times New Roman;" vertex="1" parent="1">
                    <mxGeometry x="645.0005208689419" y="93.9958862647427" width="39.14999125675108" height="30.464113735257282" as="geometry"/>
                </mxCell>
                <mxCell id="344" value="" style="group" vertex="1" connectable="0" parent="1">
                    <mxGeometry x="187" y="356.9978406783227" width="205.9999999999999" height="194.1521593216773" as="geometry"/>
                </mxCell>
                <mxCell id="340" value="" style="strokeWidth=1;html=1;shadow=0;dashed=0;shape=mxgraph.android.action_bar_landscape;fillColor=#1A1A1A;strokeColor=#c0c0c0;strokeWidth=2;fontColor=#FFFFFF;rotation=-240;" vertex="1" parent="344">
                    <mxGeometry x="-16.25" y="46.63" width="215" height="30" as="geometry"/>
                </mxCell>
                <mxCell id="338" value="" style="shape=sumEllipse;perimeter=ellipsePerimeter;whiteSpace=wrap;html=1;backgroundOutline=1;fontColor=#FF99CC;strokeWidth=4;" vertex="1" parent="344">
                    <mxGeometry y="125.69215932167731" width="68" height="68.46" as="geometry"/>
                </mxCell>
                <mxCell id="350" value="&lt;font style=&quot;font-size: 36px;&quot;&gt;$$\theta_1$$&lt;/font&gt;" style="text;html=1;strokeColor=none;fillColor=none;align=center;verticalAlign=middle;whiteSpace=wrap;rounded=0;fillStyle=hatch;strokeWidth=4;fontFamily=Comic Sans MS;fontSize=60;fontColor=#000000;" vertex="1" parent="344">
                    <mxGeometry x="79.99522996818047" y="157.00676443236836" width="50.330178933013755" height="19.754223333536622" as="geometry"/>
                </mxCell>
                <mxCell id="351" value="&lt;font style=&quot;font-size: 36px;&quot; color=&quot;#000000&quot;&gt;$$d_2$$&lt;/font&gt;" style="text;html=1;align=center;verticalAlign=middle;resizable=0;points=[];autosize=1;strokeColor=none;fillColor=none;fontSize=24;fontColor=#FF6666;" vertex="1" parent="344">
                    <mxGeometry x="47.999999999999886" y="55.002159321677254" width="158" height="55" as="geometry"/>
                </mxCell>
                <mxCell id="345" value="" style="group" vertex="1" connectable="0" parent="1">
                    <mxGeometry x="372" y="345.9976408975325" width="132.15051212569296" height="213.33235910246748" as="geometry"/>
                </mxCell>
                <mxCell id="343" value="" style="strokeWidth=1;html=1;shadow=0;dashed=0;shape=mxgraph.android.action_bar_landscape;fillColor=#1A1A1A;strokeColor=#c0c0c0;strokeWidth=2;fontColor=#FFFFFF;rotation=-240;" vertex="1" parent="345">
                    <mxGeometry x="12" y="38.83235910246748" width="107" height="30" as="geometry"/>
                </mxCell>
                <mxCell id="341" value="" style="strokeWidth=1;html=1;shadow=0;dashed=0;shape=mxgraph.android.action_bar_landscape;fillColor=#1A1A1A;strokeColor=#c0c0c0;strokeWidth=2;fontColor=#FFFFFF;rotation=90;" vertex="1" parent="345">
                    <mxGeometry x="-16.5" y="147.33235910246748" width="101" height="31" as="geometry"/>
                </mxCell>
                <mxCell id="342" value="" style="shape=sumEllipse;perimeter=ellipsePerimeter;whiteSpace=wrap;html=1;backgroundOutline=1;fontColor=#FF99CC;strokeWidth=4;" vertex="1" parent="345">
                    <mxGeometry y="68.83235910246748" width="68" height="68.46" as="geometry"/>
                </mxCell>
                <mxCell id="346" value="&lt;font style=&quot;font-size: 32px;&quot;&gt;$$ D_1 $$&lt;/font&gt;" style="text;html=1;strokeColor=none;fillColor=none;align=center;verticalAlign=middle;whiteSpace=wrap;rounded=0;strokeWidth=4;fontSize=32;fontFamily=Times New Roman;" vertex="1" parent="345">
                    <mxGeometry x="66.09000000000003" y="178.3304511266673" width="39.14999125675108" height="30.464113735257282" as="geometry"/>
                </mxCell>
                <mxCell id="349" value="&lt;font color=&quot;#ff8000&quot; style=&quot;font-size: 32px;&quot;&gt;$$ (ks)_1 $$&lt;/font&gt;" style="text;html=1;strokeColor=none;fillColor=none;align=center;verticalAlign=middle;whiteSpace=wrap;rounded=0;strokeWidth=4;fontSize=32;fontFamily=Times New Roman;" vertex="1" parent="345">
                    <mxGeometry x="93.00052086894186" y="91.43824536721019" width="39.14999125675108" height="30.464113735257282" as="geometry"/>
                </mxCell>
            </root>
        </mxGraphModel>
    </diagram>
</mxfile>